<?xml version="1.0" encoding="UTF-8" standalone="no"?>
<svg
   width="44"
   height="44"
   version="1.1"
   id="svg9"
   sodipodi:docname="ip-finder-logo.svg"
   inkscape:version="1.4 (unknown)"
   xml:space="preserve"
   xmlns:inkscape="http://www.inkscape.org/namespaces/inkscape"
   xmlns:sodipodi="http://sodipodi.sourceforge.net/DTD/sodipodi-0.dtd"
   xmlns="http://www.w3.org/2000/svg"
   xmlns:svg="http://www.w3.org/2000/svg"><defs
     id="defs9" /><sodipodi:namedview
     id="namedview9"
     pagecolor="#ffffff"
     bordercolor="#000000"
     borderopacity="0.25"
     inkscape:showpageshadow="2"
     inkscape:pageopacity="0.0"
     inkscape:pagecheckerboard="0"
     inkscape:deskcolor="#d1d1d1"
     inkscape:zoom="2.5198864"
     inkscape:cx="-199.41376"
     inkscape:cy="164.29312"
     inkscape:window-width="2560"
     inkscape:window-height="1363"
     inkscape:window-x="0"
     inkscape:window-y="40"
     inkscape:window-maximized="1"
     inkscape:current-layer="svg9" /><path
     d="M 0.643,21.912 A 21,21 0 0 0 0.62,22.534 21.38,21.38 0 0 0 22,43.914 21.38,21.38 0 0 0 43.38,22.534 21,21 0 0 0 43.358,22.087 21.38,21.38 0 0 1 22,42.845 21.38,21.38 0 0 1 0.643,21.912"
     style="opacity:0.166667;stroke-width:1.069;stroke-dasharray:none"
     id="path1" /><path
     d="M 7.233,6.004 A 21.38,21.38 0 0 1 37.461,6.698 21.38,21.38 0 0 1 36.767,36.926 21.38,21.38 0 0 1 6.539,36.232 21.38,21.38 0 0 1 7.233,6.004"
     style="fill:#ededec;fill-opacity:1;stroke-width:1.06902"
     id="path2" /><path
     d="M 8.34,7.164 A 19.777,19.777 0 0 1 36.302,7.805 19.777,19.777 0 0 1 35.66,35.767 19.777,19.777 0 0 1 7.698,35.125 19.777,19.777 0 0 1 8.34,7.164"
     style="fill:#00aad4;fill-opacity:1;stroke-width:0.98884"
     id="path3" /><path
     d="M 22,0.085 A 21.38,21.38 0 0 0 0.62,21.465 21,21 0 0 0 0.643,21.912 21.38,21.38 0 0 1 21.999,1.154 21.38,21.38 0 0 1 43.357,22.087 21,21 0 0 0 43.38,21.465 21.38,21.38 0 0 0 22,0.085"
     style="opacity:0.1;fill:#ffffff;fill-opacity:1;stroke-width:1.06902"
     id="path9" /><g
     id="g11"
     transform="matrix(1.1528547,0,0,1.1528547,-3.3939628,-2.9543859)"
     style="fill:#d5f6ff;fill-opacity:1"><path
       id="rect1"
       style="fill:#d5f6ff;fill-opacity:1;stroke-width:0.649;stroke-linecap:round;stroke-linejoin:round"
       d="m 18.35157,22.074627 c -0.0306,0.980923 -0.0293,2.943359 -0.0293,2.943359 l 0.04492,3.978515 7.310547,2.46875 v -9.353515 c 0,0 -1.319615,1.647772 -1.966797,2.451172 -0.435841,0.541043 -0.927796,1.048834 -1.666016,1.089843 -0.761668,0.04232 -1.321599,-0.550762 -1.755859,-1.089843 -0.647185,-0.8034 -1.354534,-1.636257 -1.9375,-2.488281 z" /><path
       id="path11"
       style="fill:#d5f6ff;fill-opacity:1;stroke-width:0.649;stroke-linecap:round;stroke-linejoin:round"
       d="m 16.218757,18.332439 -3.527343,1.386719 c -0.475575,0.191551 -1.1836,0.331254 -1.511719,0.757812 -0.372707,0.484518 -0.212891,1.32997 -0.212891,1.90625 v 4.722657 3.08789 c 0,0.33809 -0.120782,0.917381 0.181641,1.150391 0.376714,0.29026 0.83206,0.03709 1.179687,-0.136719 0.712419,-0.35621 1.460331,-0.6603 2.179688,-1 0.602015,-0.28428 1.816406,-0.816406 1.816406,-0.816406 l 0.681641,-0.31836 c 0,0 0.04492,-0.587129 0.04492,-0.787109 v -1.998047 -4.175781 c 0,-0.652219 -0.05273,-1.980469 -0.05273,-1.980469 0,0 -0.522169,-1.136446 -0.779297,-1.798828 z" /><path
       id="path10"
       style="fill:#d5f6ff;fill-opacity:1;stroke-width:0.649;stroke-linecap:round;stroke-linejoin:round"
       d="m 32.300789,17.986736 c -0.168853,0.0016 -0.326774,0.113678 -0.539063,0.205078 -1.595541,0.704074 -4.767578,2.224609 -4.767578,2.224609 0,0 0.03305,7.368099 -0.04492,11.048828 0,0 2.882092,-1.27603 4.335938,-1.84375 0.552273,-0.222449 1.195552,-0.462698 1.523437,-1.011718 0.29612,-0.49582 0.3152,-1.085168 0.3125,-1.642578 -0.0124,-2.5354 -0.129186,-5.113405 -0.06641,-7.648438 0.0051,-0.35431 -0.12735,-0.929904 -0.423828,-1.1875 -0.122874,-0.106762 -0.228766,-0.145518 -0.330078,-0.144531 z" /><path
       id="path8"
       style="fill:#d5f6ff;fill-opacity:1;stroke-width:0.649;stroke-linecap:round;stroke-linejoin:round"
       d="m 32.300789,17.986736 c 0.101312,-9.87e-4 0.207204,0.03777 0.330078,0.144531 0.296478,0.257596 0.428895,0.83319 0.423828,1.1875 -0.06278,2.535033 0.05401,5.113038 0.06641,7.648438 0.0027,0.55741 -0.01638,1.146758 -0.3125,1.642578 -0.327885,0.54902 -0.971164,0.789269 -1.523437,1.011718 -1.453846,0.56772 -4.335938,1.84375 -4.335938,1.84375 0.07797,-3.680729 0.04492,-11.048828 0.04492,-11.048828 0,0 3.172037,-1.520535 4.767578,-2.224609 0.212289,-0.0914 0.37021,-0.203432 0.539063,-0.205078 z" /><path
       id="path6"
       style="fill:#d5f6ff;fill-opacity:1;stroke-width:0.649;stroke-linecap:round;stroke-linejoin:round"
       d="m 21.847664,11.816814 c -0.176621,0.0049 -0.353356,0.02195 -0.529297,0.04883 -2.302547,0.351779 -4.41387,2.529619 -4.175782,4.978516 0.150171,1.544614 1.159237,3.012294 1.996094,4.267578 0.609118,0.913678 1.28211,1.803353 1.998047,2.634765 0.291492,0.338508 0.486838,0.713166 1,0.634766 0.355693,-0.05434 0.51134,-0.384827 0.726563,-0.634766 0.596798,-0.693056 1.128644,-1.438338 1.664062,-2.179687 0.976364,-1.35189 2.163762,-3.011948 2.330078,-4.722656 0.269282,-2.769791 -2.360439,-5.101184 -5.009765,-5.027344 z m 0.101562,3.242187 a 1.6096492,1.6096492 0 0 1 1.609375,1.609376 1.6096492,1.6096492 0 0 1 -1.609375,1.609374 1.6096492,1.6096492 0 0 1 -1.609375,-1.609374 1.6096492,1.6096492 0 0 1 1.609375,-1.609376 z" /></g></svg>
